<?xml version="1.0" standalone="no"?>
<!DOCTYPE svg PUBLIC "-//W3C//DTD SVG 20010904//EN"
 "http://www.w3.org/TR/2001/REC-SVG-20010904/DTD/svg10.dtd">
<svg version="1.0" xmlns="http://www.w3.org/2000/svg"
 width="512.000000pt" height="512.000000pt" viewBox="0 0 512.000000 512.000000"
 preserveAspectRatio="xMidYMid meet">

<g transform="translate(0.000000,512.000000) scale(0.100000,-0.100000)"
fill="#000000" stroke="none">
<path d="M2360 5110 c-180 -23 -372 -78 -535 -154 -84 -40 -241 -133 -293
-174 l-23 -18 41 -54 c23 -30 44 -56 49 -58 4 -1 45 23 91 54 46 30 115 72
154 91 67 34 237 103 253 103 4 0 -7 -15 -24 -32 -92 -98 -216 -320 -283 -505
l-33 -93 -254 0 -254 0 28 38 c40 55 112 140 164 197 l47 50 -50 54 -49 54
-51 -49 c-27 -27 -77 -83 -111 -124 -537 -662 -524 -1588 32 -2234 40 -48 99
-108 130 -135 l57 -49 48 54 48 55 -99 102 c-91 94 -183 205 -183 220 0 4 112
7 249 7 l248 0 28 -77 c48 -138 160 -353 234 -450 38 -51 66 -93 61 -93 -34 0
-265 107 -355 164 -27 18 -55 35 -61 39 -11 6 -20 -5 -78 -95 l-17 -26 85 -52
c586 -354 1301 -340 1861 35 595 399 883 1107 733 1804 -63 297 -208 575 -419
804 l-62 68 -53 -52 -52 -51 73 -85 c40 -47 88 -105 105 -129 l31 -44 -254 0
-254 0 -33 93 c-67 185 -191 407 -283 504 l-31 33 30 -9 c121 -35 306 -128
429 -216 43 -31 81 -53 84 -48 51 62 81 103 81 110 -1 23 -250 177 -377 232
-229 99 -413 140 -658 146 -93 2 -204 0 -245 -5z m120 -495 l0 -345 -280 0
c-154 0 -280 2 -280 5 0 12 66 167 101 239 108 216 243 363 387 422 31 13 60
24 65 24 4 0 7 -155 7 -345z m269 303 c120 -57 254 -213 350 -404 35 -72 101
-227 101 -239 0 -3 -126 -5 -280 -5 l-280 0 0 346 0 345 23 -6 c12 -4 51 -20
86 -37z m-1039 -812 c0 -8 -7 -47 -15 -87 -23 -108 -43 -252 -50 -354 -3 -49
-8 -114 -11 -142 l-5 -53 -321 0 -321 0 6 78 c12 151 64 346 136 505 l30 67
276 0 c232 0 275 -2 275 -14z m770 -311 l0 -325 -345 0 -345 0 0 73 c0 121 29
335 70 525 l12 52 304 0 304 0 0 -325z m784 253 c39 -176 66 -385 66 -505 l0
-73 -345 0 -345 0 0 325 0 325 304 0 304 0 16 -72z m731 0 c68 -150 120 -345
132 -500 l6 -78 -321 0 -321 0 -5 53 c-3 28 -8 93 -11 142 -7 102 -27 246 -50
354 -8 40 -15 79 -15 87 0 12 43 14 276 14 l275 0 34 -72z m-2361 -790 c19
-231 30 -329 52 -445 13 -73 24 -135 24 -138 0 -3 -124 -5 -276 -5 l-275 0
-34 73 c-71 153 -120 336 -131 490 l-7 87 321 0 320 0 6 -62z m846 -263 l0
-325 -304 0 -304 0 -16 68 c-38 168 -66 380 -66 505 l0 77 345 0 345 0 0 -325z
m850 252 c0 -78 -23 -297 -41 -387 -6 -30 -17 -85 -26 -122 l-15 -68 -304 0
-304 0 0 325 0 325 345 0 345 0 0 -73z m796 -14 c-11 -154 -60 -337 -131 -490
l-34 -73 -275 0 c-152 0 -276 2 -276 5 0 3 11 65 24 138 14 73 30 193 36 267
6 74 14 159 16 188 l5 52 321 0 321 0 -7 -87z m-1646 -1063 c0 -386 7 -360
-85 -316 -143 67 -272 211 -379 425 -30 58 -96 216 -96 228 0 2 126 3 280 3
l280 0 0 -340z m720 336 c0 -10 -73 -183 -101 -238 -102 -203 -234 -348 -374
-414 -92 -44 -85 -70 -85 316 l0 340 280 0 c154 0 280 -2 280 -4z m660 -2 c0
-16 -136 -177 -206 -245 -125 -119 -243 -203 -392 -278 -62 -31 -211 -91 -227
-91 -2 0 28 42 66 93 74 97 186 312 234 450 l28 77 248 0 c137 0 249 -3 249
-6z"/>
<path d="M714 4906 c-189 -43 -293 -156 -324 -353 -6 -36 -10 -96 -9 -132 2
-55 -4 -81 -34 -156 -20 -50 -39 -103 -43 -118 -3 -15 -23 -40 -43 -55 -281
-207 -324 -432 -131 -687 l47 -62 12 -144 c7 -79 13 -146 14 -149 1 -3 -15
-35 -36 -71 -61 -109 -80 -172 -81 -274 -1 -83 2 -96 32 -157 45 -91 143 -182
258 -238 62 -30 91 -50 103 -72 75 -136 222 -338 349 -478 l50 -55 56 55 56
54 -59 61 c-115 119 -229 273 -318 432 l-35 63 36 83 c59 138 64 255 17 363
-27 59 -137 168 -218 214 l-61 34 -6 71 c-4 38 -9 97 -13 131 l-5 61 50 37
c28 20 72 60 97 89 146 162 152 338 19 537 l-56 85 17 50 c10 27 27 71 38 98
l19 47 67 0 c122 0 248 43 324 110 76 66 127 211 127 360 0 109 -8 157 -29
165 -34 14 -226 15 -287 1z m166 -190 c0 -30 -9 -83 -20 -118 -35 -114 -108
-163 -259 -175 l-74 -6 6 71 c12 125 53 204 127 243 37 19 118 37 173 38 l47
1 0 -54z m-472 -871 c21 -40 26 -64 27 -121 0 -65 -3 -75 -37 -126 -20 -31
-57 -72 -82 -93 l-46 -37 -20 23 c-36 43 -80 143 -87 196 -8 72 27 142 108
218 l61 56 25 -33 c13 -18 36 -55 51 -83z m0 -994 c28 -22 63 -61 78 -86 23
-40 26 -53 22 -118 -4 -73 -48 -197 -71 -197 -20 0 -106 62 -142 102 -21 22
-44 57 -52 77 -22 51 -10 138 28 222 l32 68 27 -14 c15 -8 50 -32 78 -54z"/>
<path d="M4147 4910 c-20 -4 -40 -10 -44 -14 -16 -15 -15 -231 1 -300 20 -85
68 -177 113 -216 76 -67 202 -110 325 -110 l66 0 36 -92 c20 -51 36 -96 36
-100 0 -4 -25 -44 -55 -89 -132 -197 -126 -375 20 -536 25 -29 69 -69 97 -89
l50 -37 -6 -71 c-4 -39 -9 -98 -13 -131 l-5 -61 -61 -34 c-81 -46 -191 -155
-218 -214 -47 -108 -42 -225 17 -363 l36 -83 -35 -62 c-87 -156 -200 -310
-314 -429 l-63 -65 56 -55 56 -54 50 55 c127 140 274 342 349 478 12 22 41 42
103 72 115 56 213 147 258 238 30 61 33 74 32 157 -1 102 -20 165 -81 274 -21
36 -37 68 -36 71 1 3 7 70 14 149 l12 144 47 62 c115 151 147 307 92 436 -35
80 -118 174 -223 251 -20 15 -40 40 -43 55 -4 15 -23 68 -43 118 -30 75 -36
101 -34 156 2 82 -13 183 -40 254 -26 71 -104 156 -172 190 -97 47 -266 67
-380 45z m225 -151 c140 -30 199 -104 214 -269 l7 -70 -49 0 c-98 0 -198 38
-246 95 -27 30 -58 140 -58 201 l0 54 40 0 c21 0 63 -5 92 -11z m496 -873 c70
-74 96 -133 88 -200 -6 -52 -50 -152 -86 -195 l-20 -23 -46 37 c-25 21 -62 62
-82 93 -34 51 -37 61 -37 126 1 75 10 101 68 188 37 55 39 54 115 -26z m18
-1153 c9 -72 -6 -119 -56 -175 -38 -44 -126 -108 -147 -108 -23 0 -67 124 -71
197 -4 64 -1 78 22 117 26 45 81 96 146 135 l35 21 32 -66 c17 -36 35 -91 39
-121z"/>
<path d="M165 1426 c-59 -27 -107 -72 -138 -130 -22 -41 -22 -47 -25 -550 -3
-588 -5 -574 82 -661 88 -88 57 -85 778 -85 l628 0 0 75 0 74 -623 3 c-575 3
-625 4 -650 21 -64 42 -62 24 -65 543 -3 524 -3 525 60 564 31 19 50 20 281
20 l247 0 0 75 0 75 -262 0 c-255 0 -265 -1 -313 -24z"/>
<path d="M890 1375 l0 -75 1605 0 1605 0 0 23 c0 12 -3 46 -6 75 l-7 52 -1598
0 -1599 0 0 -75z"/>
<path d="M4240 1375 l0 -75 318 0 c300 0 319 -1 350 -20 63 -39 63 -40 60
-564 -3 -519 -1 -501 -65 -543 -26 -17 -119 -18 -1651 -21 l-1625 -2 7 -53 c3
-28 6 -62 6 -74 l0 -23 1623 0 c1842 0 1681 -8 1773 85 87 87 85 73 82 661 -3
507 -3 509 -26 551 -28 54 -78 104 -128 129 -36 17 -66 19 -381 22 l-343 3 0
-76z"/>
<path d="M960 725 l0 -386 78 3 c66 3 77 6 76 21 0 9 -1 181 -2 382 l-2 365
-75 0 -75 0 0 -385z"/>
<path d="M300 725 l0 -377 118 3 c105 4 123 7 177 33 76 38 143 105 181 181
26 54 29 70 29 160 0 87 -3 107 -27 157 -37 79 -98 142 -176 181 -62 30 -75
32 -184 35 l-118 4 0 -377z m240 200 c67 -35 120 -126 120 -204 0 -42 -31
-116 -63 -149 -26 -29 -70 -53 -114 -63 l-33 -7 0 225 0 225 33 -7 c17 -4 43
-13 57 -20z"/>
<path d="M1414 1086 c-45 -20 -102 -74 -127 -120 -21 -39 -22 -55 -25 -334
l-3 -292 80 0 79 0 -5 75 -6 75 97 0 96 0 0 -75 0 -75 81 0 81 0 -4 287 -3
288 -27 52 c-46 86 -126 133 -225 133 -32 -1 -72 -7 -89 -14z m157 -165 c29
-29 29 -30 29 -156 l0 -126 -92 3 -93 3 0 116 c0 124 10 158 49 177 39 20 76
14 107 -17z"/>
<path d="M1900 724 l0 -375 174 3 174 3 43 30 c24 17 57 52 73 79 40 64 42
151 5 217 l-25 44 25 50 c60 115 8 260 -111 309 -29 12 -75 16 -198 16 l-160
0 0 -376z m314 205 c31 -25 34 -66 7 -100 -16 -19 -30 -24 -90 -27 l-71 -4 0
76 0 76 64 0 c49 0 69 -5 90 -21z m0 -300 c19 -15 26 -30 26 -53 0 -51 -29
-70 -111 -74 l-69 -4 0 76 0 76 64 0 c49 0 69 -5 90 -21z"/>
<path d="M2540 725 l0 -375 200 0 200 0 0 75 0 75 -120 0 -120 0 0 75 0 75
120 0 120 0 0 75 0 75 -120 0 -120 0 0 75 0 75 120 0 120 0 0 75 0 75 -200 0
-200 0 0 -375z"/>
<path d="M3080 1025 l0 -75 95 0 95 0 0 -305 0 -305 80 0 80 0 0 305 0 305 95
0 95 0 0 75 0 75 -270 0 -270 0 0 -75z"/>
<path d="M3770 748 c0 -194 -3 -363 -6 -375 l-6 -23 206 0 206 0 0 75 0 75
-125 0 -125 0 0 75 0 74 123 3 122 3 3 73 3 72 -126 0 -125 0 0 75 0 74 123 3
122 3 3 73 3 72 -201 0 -200 0 0 -352z"/>
<path d="M4433 1079 c-170 -84 -162 -330 12 -410 25 -12 64 -19 103 -19 73 0
99 -11 113 -47 13 -35 -4 -77 -37 -92 -14 -6 -80 -11 -154 -11 l-130 0 0 -75
0 -75 153 0 c171 0 206 10 264 71 98 104 78 270 -42 344 -40 25 -62 31 -133
36 -73 5 -88 9 -103 28 -26 32 -24 67 6 96 23 24 29 25 165 25 l140 0 0 75 0
75 -157 0 c-140 0 -163 -2 -200 -21z"/>
</g>
</svg>
